<?xml version="1.0" standalone="no"?>
<!DOCTYPE svg PUBLIC "-//W3C//DTD SVG 20010904//EN"
 "http://www.w3.org/TR/2001/REC-SVG-20010904/DTD/svg10.dtd">
<svg version="1.0" xmlns="http://www.w3.org/2000/svg"
 width="911.000000pt" height="283.000000pt" viewBox="0 0 911.000000 283.000000"
 preserveAspectRatio="xMidYMid meet">

<g transform="translate(0.000000,283.000000) scale(0.100000,-0.100000)"
fill="#000000" stroke="none">
<path d="M1262 2042 c-24 -7 -22 -1 -224 -482 -201 -476 -228 -541 -228 -551
0 -5 43 -9 99 -9 l99 0 48 120 49 120 228 -2 229 -3 46 -115 47 -115 93 -3
c68 -2 94 1 97 10 7 17 -406 984 -436 1023 -9 12 -113 17 -147 7z m152 -445
c42 -93 76 -170 76 -170 0 -1 -72 -3 -160 -3 l-159 -2 13 32 c83 198 141 325
147 318 4 -4 41 -83 83 -175z"/>
<path d="M2017 2044 c-7 -7 1 -815 9 -951 l6 -93 90 0 90 0 -4 360 c-1 197 0
356 3 352 24 -28 338 -417 439 -545 l124 -157 78 0 78 0 -2 518 -3 517 -99 3
-99 3 7 -346 c4 -190 4 -345 -1 -344 -4 0 -132 155 -283 345 l-274 344 -76 0
c-42 0 -79 -3 -83 -6z"/>
<path d="M3536 2028 c-8 -13 -96 -214 -196 -448 -99 -234 -194 -455 -210 -493
-17 -37 -30 -72 -30 -77 0 -7 35 -10 97 -8 l96 3 52 115 51 115 231 3 230 2
49 -117 50 -118 97 -3 c82 -2 97 0 97 13 0 8 -34 93 -76 187 -42 95 -107 243
-144 328 -152 349 -223 505 -234 512 -6 4 -41 8 -78 8 -59 0 -69 -3 -82 -22z
m229 -545 l24 -53 -159 0 -158 0 76 178 77 178 58 -125 c32 -70 69 -150 82
-178z"/>
<path d="M5600 2040 l-225 -5 0 -85 0 -85 165 0 165 0 3 -425 c1 -234 6 -428
10 -432 4 -4 48 -8 97 -9 l90 -2 -4 437 c-2 255 0 436 5 435 5 -1 80 -1 167 0
l158 1 -3 88 -3 87 -200 0 c-110 1 -301 -2 -425 -5z"/>
<path d="M6830 2034 c-239 -63 -403 -274 -404 -519 0 -201 114 -379 299 -470
158 -78 333 -66 482 32 72 47 206 192 235 252 12 28 25 50 28 51 3 0 34 -38
69 -85 178 -241 388 -329 616 -258 279 86 427 366 340 640 -120 377 -574 481
-855 194 -58 -59 -130 -175 -130 -210 0 -7 32 -11 98 -11 l97 0 19 35 c27 50
83 103 141 133 43 23 62 27 140 27 110 0 161 -21 235 -95 72 -71 95 -125 95
-225 -1 -65 -6 -91 -27 -136 -32 -71 -86 -124 -157 -158 -82 -38 -193 -37
-273 2 -32 16 -77 47 -100 70 -24 23 -130 158 -237 300 -106 141 -218 279
-248 306 -135 121 -305 167 -463 125z m206 -189 c93 -27 153 -82 289 -263
l127 -167 -91 -3 -91 -3 -19 -38 c-29 -55 -101 -125 -162 -158 -47 -24 -65
-28 -144 -28 -110 0 -164 23 -242 101 -146 149 -117 389 61 511 87 60 179 76
272 48z"/>
<path d="M4311 1633 c1 -225 4 -457 8 -518 l6 -110 94 -3 94 -3 -6 356 c-4
195 -5 355 -3 355 6 0 116 -139 341 -427 l219 -283 72 0 c40 0 74 4 76 10 2 5
2 239 0 520 l-2 510 -96 0 -95 0 3 -344 c2 -189 0 -342 -4 -340 -3 2 -51 62
-105 132 -55 70 -175 223 -267 340 l-167 212 -85 0 -84 0 1 -407z"/>
</g>
</svg>
